<?xml version="1.0" encoding="utf-8"?>
<!-- Generator: Adobe Illustrator 18.1.0, SVG Export Plug-In . SVG Version: 6.00 Build 0)  -->
<svg version="1.1" xmlns="http://www.w3.org/2000/svg" xmlns:xlink="http://www.w3.org/1999/xlink" x="0px" y="0px"
	 viewBox="-836 162.3 246 757.7" enable-background="new -836 162.3 246 757.7" xml:space="preserve">
<g id="svg3031" xmlns:svg="http://www.w3.org/2000/svg" xmlns:rdf="http://www.w3.org/1999/02/22-rdf-syntax-ns#" xmlns:inkscape="http://www.inkscape.org/namespaces/inkscape" xmlns:sodipodi="http://sodipodi.sourceforge.net/DTD/sodipodi-0.dtd" xmlns:cc="http://web.resource.org/cc/" xmlns:dc="http://purl.org/dc/elements/1.1/" inkscape:output_extension="org.inkscape.output.svg.inkscape" sodipodi:docname="Fender Stratocaster.svg" sodipodi:docbase="E:\Rok\Inked\Guitars" inkscape:version="0.45.1" sodipodi:version="0.32">
	
		<sodipodi:namedview  id="base" pagecolor="#ffffff" borderopacity="1.0" objecttolerance="10" guidetolerance="10" inkscape:cy="376.38214" inkscape:cx="375.58607" gridtolerance="10000" bordercolor="#666666" inkscape:zoom="0.24748738" inkscape:window-y="29" inkscape:window-x="22" inkscape:window-height="849" inkscape:window-width="1061" inkscape:current-layer="layer1" inkscape:pageopacity="0.0" inkscape:document-units="px" inkscape:pageshadow="2">
		</sodipodi:namedview>
	<g>
		
			<sodipodi:namedview  id="base" pagecolor="#ffffff" borderopacity="1.0" objecttolerance="10" guidetolerance="10" inkscape:cy="376.38214" inkscape:cx="375.58607" gridtolerance="10000" bordercolor="#666666" inkscape:zoom="0.24748738" inkscape:window-y="29" inkscape:window-x="22" inkscape:window-height="849" inkscape:window-width="1061" inkscape:current-layer="layer1" inkscape:pageopacity="0.0" inkscape:document-units="px" inkscape:pageshadow="2">
			</sodipodi:namedview>
		<g id="layer1_1_" transform="translate(-252.62176,-122.90944)" inkscape:label="Layer 1" inkscape:groupmode="layer">
			<g id="g5550_1_" transform="matrix(1.4204055,0,0,1.4204055,-335.77576,-37.323536)">
				<path id="path4527_1_" sodipodi:nodetypes="ccsscczsscssscc" fill="#E6E6E6" stroke="#000000" d="M-95.6,540.2
					c-5.4,6.6-10.7,13.7-18.7,11.1c-19.9-10.8-10.8-27.4-17.7-39c-5.9-9.8-17.2-6.3-21.2,1.5c-16,30.8,2.7,64.1,8.1,96.1
					c0,0,1.6,9.4-9.2,30.3c-15.1,29.2-20.7,57.1-19.4,67.4c1.3,10.3,10.9,44.5,51.9,50.1c43.6,6,87.8,3.4,103-11.1
					c17.1-16.3,25.7-41,6.8-91.1c-11.6-23.4-6.2-42.8,0.5-62.7c5.6-16.7,14.9-38.6-8.9-49.3c-0.7-0.3-9.5-0.1-13.1,14.6
					c-4,16.3-14.8,23.2-28.1,16.5L-95.6,540.2z"/>
				<path id="path4529_1_" sodipodi:nodetypes="ccsccscccssscss" fill="#9FA684" stroke="#000000" d="M-17.2,553.1
					c-10,9.5-6.7,33.8-31.4,33.4c-21.5-4.9-35.6-18.2-53.4-23c-4.3-1.1-8.5,3.6-6.8,8.6c1.4,15.2,6.8,30,0.3,45.8
					c-2.4,11.4-9.6,21.1-12.4,32.1c-5.8,23,2.3,26.7,6.6,31.9c2.3,2.5,7.2,3.2,12.1,3.8c21.9,1,45.9-5.5,65.8,3
					c9.8,5.7,19.4,21.5,25.8,20.7c4.1-0.5,6.1-11.4,4-21c-3.8-17.4-10.4-33-16.2-52.9c-3.1-10.6-5.2-15,4.6-36.7
					c3.8-6.2,7.1-15.8,7.6-26.1C-9.7,553.2-15.2,551.2-17.2,553.1z"/>
				<g id="g5508_1_" transform="translate(-232.08254,0)">
					<path id="rect5502_1_" fill="#E6E6E6" stroke="#000000" stroke-width="1.0169" stroke-linecap="round" d="M140.8,592.9h26.3
						c2.6,0,4.8,2.1,4.8,4.8l0,0c0,2.6-2.1,4.8-4.8,4.8h-26.3c-2.6,0-4.8-2.1-4.8-4.8l0,0C136,595,138.1,592.9,140.8,592.9z"/>
					<path id="rect5504_1_" fill="#E6E6E6" stroke="#000000" stroke-width="1.0336" stroke-linecap="round" d="M139.5,626.5h27.6
						c2.6,0,4.8,2.1,4.8,4.8l0,0c0,2.6-2.1,4.8-4.8,4.8h-27.6c-2.6,0-4.8-2.1-4.8-4.8l0,0C134.7,628.7,136.8,626.5,139.5,626.5z"/>
					<path id="rect5506_1_" fill="#E6E6E6" stroke="#000000" stroke-width="1.0364" stroke-linecap="round" d="M138.8,665.2
						l26.6,3.9c2.7,0.4,5.1-1.5,5.5-4.1l0,0c0.4-2.7-1.5-5.1-4.1-5.5l-26.6-3.9c-2.7-0.4-5.1,1.5-5.5,4.1l0,0
						C134.3,662.3,136.1,664.8,138.8,665.2z"/>
				</g>
				<path id="path4498_1_" sodipodi:nodetypes="ccssccccc" fill="#999999" stroke="#000000" stroke-width="1.1464" d="M-77,240.7
					l-0.6,0.6c0,0-5.8,1.5-6.8-0.6c-1-2.1,0.7-7.1,2.9-7.9s5.9,4.6,5.9,4.6l0,1.1l2.7,1l-0.9,2.5L-77,240.7z"/>
				<path id="path12964_1_" sodipodi:nodetypes="ccssccccc" fill="#999999" stroke="#000000" stroke-width="1.1464" d="M-81.3,251.8
					l-0.6,0.6c0,0-5.8,1.5-6.8-0.6c-1-2.1,0.7-7.1,2.9-7.9c2.2-0.8,5.9,4.6,5.9,4.6l0,1.1l2.7,1l-0.9,2.5L-81.3,251.8z"/>
				<path id="path4500_1_" sodipodi:nodetypes="ccssccccc" fill="#999999" stroke="#000000" stroke-width="1.1464" d="M-86.1,264.2
					l-0.6,0.6c0,0-5.8,1.5-6.8-0.6s0.7-7.1,2.9-7.9c2.2-0.8,5.9,4.6,5.9,4.6l0,1.1l2.7,1l-0.9,2.5L-86.1,264.2z"/>
				<path id="path4502_1_" sodipodi:nodetypes="ccssccccc" fill="#999999" stroke="#000000" stroke-width="1.1464" d="M-89.7,276.3
					l-0.6,0.6c0,0-5.8,1.5-6.8-0.6s0.7-7.1,2.9-7.9c2.2-0.8,5.9,4.6,5.9,4.6l0,1.1l2.7,1l-0.9,2.5L-89.7,276.3z"/>
				<path id="path4504_1_" sodipodi:nodetypes="ccssccccc" fill="#999999" stroke="#000000" stroke-width="1.1464" d="M-94.2,287.7
					l-0.6,0.6c0,0-5.8,1.5-6.8-0.6s0.7-7.1,2.9-7.9c2.2-0.8,5.9,4.6,5.9,4.6l0,1.1l2.7,1l-0.9,2.5L-94.2,287.7z"/>
				<path id="path4506_1_" sodipodi:nodetypes="ccssccccc" fill="#999999" stroke="#000000" stroke-width="1.1464" d="M-98,299.6
					l-0.6,0.6c0,0-5.8,1.5-6.8-0.6c-1-2.1,0.7-7.1,2.9-7.9c2.2-0.8,5.9,4.6,5.9,4.6l0,1.1l2.7,1l-0.9,2.5L-98,299.6z"/>
				<path id="path4496_1_" sodipodi:nodetypes="cccscccc" fill="#9D530A" stroke="#000000" d="M-89.6,318.6c-6.7-1-9.4-5.4-8.1-13.2
					c0.3,0.3,14.3-49.2,23.8-68.8c5.6-18.2,21.9-4.3,24-1.8c7.7,9.1-2.4,25.1-9.9,21.5c2,15.2,9.2,31.1,7.3,45.5
					c-5.8,5.3-11.5,10.8-13.9,16.7H-89.6z"/>
				<path id="path12980_1_" sodipodi:nodetypes="ccccc" fill="#C87137" stroke="#000000" stroke-width="1.4241" d="M-90.7,318.1
					l-5,265c9.8,2.6,20.7,2.8,33.1,0l-3.6-265H-90.7z"/>
				<path id="rect12982_1_" fill="#FFE680" stroke="#000000" stroke-width="0.3215" d="M-96,581h32.9c0.1,0,0.2,0.1,0.2,0.2v0.6
					c0,0.1-0.1,0.2-0.2,0.2H-96c-0.1,0-0.2-0.1-0.2-0.2v-0.6C-96.3,581.1-96.2,581-96,581z"/>
				<path id="rect12984_1_" fill="#FFE680" stroke="#000000" stroke-width="0.3194" d="M-95.8,575.4h32.4c0.1,0,0.2,0.1,0.2,0.2v0.6
					c0,0.1-0.1,0.2-0.2,0.2h-32.4c-0.1,0-0.2-0.1-0.2-0.2v-0.6C-96,575.5-95.9,575.4-95.8,575.4z"/>
				<path id="rect12986_1_" fill="#FFE680" stroke="#000000" stroke-width="0.3215" d="M-96.3,568.8h32.9c0.1,0,0.2,0.1,0.2,0.2v0.6
					c0,0.1-0.1,0.2-0.2,0.2h-32.9c-0.1,0-0.2-0.1-0.2-0.2V569C-96.5,568.9-96.4,568.8-96.3,568.8z"/>
				<path id="rect12988_1_" fill="#FFE680" stroke="#000000" stroke-width="0.3215" d="M-96.3,562.2h32.9c0.1,0,0.2,0.1,0.2,0.2v0.6
					c0,0.1-0.1,0.2-0.2,0.2h-32.9c-0.1,0-0.2-0.1-0.2-0.2v-0.6C-96.5,562.3-96.4,562.2-96.3,562.2z"/>
				<path id="rect12990_1_" fill="#FFE680" stroke="#000000" stroke-width="0.3194" d="M-95.5,554.8h32.4c0.1,0,0.2,0.1,0.2,0.2v0.6
					c0,0.1-0.1,0.2-0.2,0.2h-32.4c-0.1,0-0.2-0.1-0.2-0.2V555C-95.8,554.9-95.7,554.8-95.5,554.8z"/>
				<path id="rect12992_1_" fill="#FFE680" stroke="#000000" stroke-width="0.3183" d="M-95.3,547.2h32.1c0.1,0,0.2,0.1,0.2,0.2v0.6
					c0,0.1-0.1,0.2-0.2,0.2h-32.1c-0.1,0-0.2-0.1-0.2-0.2v-0.6C-95.5,547.2-95.4,547.2-95.3,547.2z"/>
				<path id="rect12994_1_" fill="#FFE680" stroke="#000000" stroke-width="0.3204" d="M-95.5,539.5h32.7c0.1,0,0.2,0.1,0.2,0.2v0.6
					c0,0.1-0.1,0.2-0.2,0.2h-32.7c-0.1,0-0.2-0.1-0.2-0.2v-0.6C-95.8,539.6-95.7,539.5-95.5,539.5z"/>
				<path id="rect12996_1_" fill="#FFE680" stroke="#000000" stroke-width="0.3173" d="M-95,531.1h31.9c0.1,0,0.2,0.1,0.2,0.2v0.6
					c0,0.1-0.1,0.2-0.2,0.2H-95c-0.1,0-0.2-0.1-0.2-0.2v-0.6C-95.2,531.2-95.2,531.1-95,531.1z"/>
				<path id="rect12998_1_" fill="#FFE680" stroke="#000000" stroke-width="0.3173" d="M-94.8,521.7h31.9c0.1,0,0.2,0.1,0.2,0.2v0.6
					c0,0.1-0.1,0.2-0.2,0.2h-31.9c-0.1,0-0.2-0.1-0.2-0.2v-0.6C-95,521.8-94.9,521.7-94.8,521.7z"/>
				<path id="rect13000_1_" fill="#FFE680" stroke="#000000" stroke-width="0.3151" d="M-94.8,512.2h31.4c0.1,0,0.2,0.1,0.2,0.2v0.6
					c0,0.1-0.1,0.2-0.2,0.2h-31.4c-0.1,0-0.2-0.1-0.2-0.2v-0.6C-95,512.3-94.9,512.2-94.8,512.2z"/>
				<path id="rect13002_1_" fill="#FFE680" stroke="#000000" stroke-width="0.3085" d="M-94,501.8h29.9c0.1,0,0.2,0.1,0.2,0.2v0.6
					c0,0.1-0.1,0.2-0.2,0.2H-94c-0.1,0-0.2-0.1-0.2-0.2V502C-94.2,501.9-94.1,501.8-94,501.8z"/>
				<path id="rect13004_1_" fill="#FFE680" stroke="#000000" stroke-width="0.3096" d="M-94.3,491.9h30.1c0.1,0,0.2,0.1,0.2,0.2v0.6
					c0,0.1-0.1,0.2-0.2,0.2h-30.1c-0.1,0-0.2-0.1-0.2-0.2v-0.6C-94.5,492-94.4,491.9-94.3,491.9z"/>
				<path id="rect13006_1_" fill="#FFE680" stroke="#000000" stroke-width="0.3118" d="M-94.3,480.1h30.6c0.1,0,0.2,0.1,0.2,0.2v0.6
					c0,0.1-0.1,0.2-0.2,0.2h-30.6c-0.1,0-0.2-0.1-0.2-0.2v-0.6C-94.5,480.2-94.4,480.1-94.3,480.1z"/>
				<path id="rect13008_1_" fill="#FFE680" stroke="#000000" stroke-width="0.2946" d="M-92,360.9h26.8c0.1,0,0.2,0.1,0.2,0.2v0.6
					c0,0.1-0.1,0.2-0.2,0.2H-92c-0.1,0-0.2-0.1-0.2-0.2v-0.6C-92.2,361-92.1,360.9-92,360.9z"/>
				<path id="rect13010_1_" fill="#FFE680" stroke="#000000" stroke-width="0.2898" d="M-91.3,341.6h25.8c0.1,0,0.2,0.1,0.2,0.2v0.6
					c0,0.1-0.1,0.2-0.2,0.2h-25.8c-0.1,0-0.2-0.1-0.2-0.2v-0.6C-91.6,341.7-91.5,341.6-91.3,341.6z"/>
				<path id="rect13024_1_" fill="#D38D5F" stroke="#000000" stroke-width="0.7121" d="M-91.3,318.6h26c0.1,0,0.2,0.1,0.2,0.2v3.1
					c0,0.1-0.1,0.2-0.2,0.2h-26c-0.1,0-0.2-0.1-0.2-0.2v-3.1C-91.6,318.7-91.5,318.6-91.3,318.6z"/>
				<path id="rect13036_1_" fill="#FFE680" stroke="#000000" stroke-width="0.3017" d="M-92.7,395.8h28.3c0.1,0,0.2,0.1,0.2,0.2v0.6
					c0,0.1-0.1,0.2-0.2,0.2h-28.3c-0.1,0-0.2-0.1-0.2-0.2V396C-93,395.9-92.9,395.8-92.7,395.8z"/>
				<path id="rect13038_1_" fill="#FFE680" stroke="#000000" stroke-width="0.2958" d="M-92,378.8h27.1c0.1,0,0.2,0.1,0.2,0.2v0.6
					c0,0.1-0.1,0.2-0.2,0.2H-92c-0.1,0-0.2-0.1-0.2-0.2V379C-92.2,378.9-92.1,378.8-92,378.8z"/>
				<path id="rect13040_1_" fill="#FFE680" stroke="#000000" stroke-width="0.2994" d="M-92.5,412.1h27.8c0.1,0,0.2,0.1,0.2,0.2v0.6
					c0,0.1-0.1,0.2-0.2,0.2h-27.8c-0.1,0-0.2-0.1-0.2-0.2v-0.6C-92.7,412.2-92.6,412.1-92.5,412.1z"/>
				<path id="rect13042_1_" fill="#FFE680" stroke="#000000" stroke-width="0.3017" d="M-93,427.4h28.3c0.1,0,0.2,0.1,0.2,0.2v0.6
					c0,0.1-0.1,0.2-0.2,0.2H-93c-0.1,0-0.2-0.1-0.2-0.2v-0.6C-93.2,427.5-93.1,427.4-93,427.4z"/>
				<path id="rect13044_1_" fill="#FFE680" stroke="#000000" stroke-width="0.2994" d="M-93.3,441.4h27.8c0.1,0,0.2,0.1,0.2,0.2v0.6
					c0,0.1-0.1,0.2-0.2,0.2h-27.8c-0.1,0-0.2-0.1-0.2-0.2v-0.6C-93.5,441.5-93.4,441.4-93.3,441.4z"/>
				<path id="rect13046_1_" fill="#FFE680" stroke="#000000" stroke-width="0.3074" d="M-93.5,455.2h29.6c0.1,0,0.2,0.1,0.2,0.2v0.6
					c0,0.1-0.1,0.2-0.2,0.2h-29.6c-0.1,0-0.2-0.1-0.2-0.2v-0.6C-93.7,455.3-93.6,455.2-93.5,455.2z"/>
				<path id="rect13048_1_" fill="#FFE680" stroke="#000000" stroke-width="0.3085" d="M-93.8,467.9h29.9c0.1,0,0.2,0.1,0.2,0.2v0.6
					c0,0.1-0.1,0.2-0.2,0.2h-29.9c-0.1,0-0.2-0.1-0.2-0.2v-0.6C-94,468-93.9,467.9-93.8,467.9z"/>
				
					<path id="path13060_1_" sodipodi:cx="435.35715" sodipodi:type="arc" sodipodi:cy="60.219322" sodipodi:rx="2.3214285" sodipodi:ry="2.3214285" fill="#B3B3B3" d="
					M-69.6,253.9c0,1.8-1.5,3.3-3.3,3.3c-1.8,0-3.3-1.5-3.3-3.3s1.5-3.3,3.3-3.3C-71.1,250.6-69.6,252.1-69.6,253.9z"/>
				
					<path id="path13062_1_" sodipodi:cx="435.35715" sodipodi:type="arc" sodipodi:cy="60.219322" sodipodi:rx="2.3214285" sodipodi:ry="2.3214285" fill="#B3B3B3" d="
					M-73.4,266c0,1.8-1.5,3.3-3.3,3.3c-1.8,0-3.3-1.5-3.3-3.3c0-1.8,1.5-3.3,3.3-3.3C-74.9,262.7-73.4,264.1-73.4,266z"/>
				
					<path id="path13064_1_" sodipodi:cx="435.35715" sodipodi:type="arc" sodipodi:cy="60.219322" sodipodi:rx="2.3214285" sodipodi:ry="2.3214285" fill="#B3B3B3" d="
					M-77.4,278.2c0,1.8-1.5,3.3-3.3,3.3c-1.8,0-3.3-1.5-3.3-3.3c0-1.8,1.5-3.3,3.3-3.3C-78.9,274.9-77.4,276.4-77.4,278.2z"/>
				
					<path id="path13066_1_" sodipodi:cx="435.35715" sodipodi:type="arc" sodipodi:cy="60.219322" sodipodi:rx="2.3214285" sodipodi:ry="2.3214285" fill="#B3B3B3" d="
					M-82,290.5c0,1.8-1.5,3.3-3.3,3.3c-1.8,0-3.3-1.5-3.3-3.3c0-1.8,1.5-3.3,3.3-3.3C-83.5,287.2-82,288.6-82,290.5z"/>
				
					<path id="path13068_1_" sodipodi:cx="435.35715" sodipodi:type="arc" sodipodi:cy="60.219322" sodipodi:rx="2.3214285" sodipodi:ry="2.3214285" fill="#B3B3B3" d="
					M-65.7,242.5c0,1.8-1.5,3.3-3.3,3.3c-1.8,0-3.3-1.5-3.3-3.3s1.5-3.3,3.3-3.3C-67.2,239.2-65.7,240.7-65.7,242.5z"/>
				
					<path id="path13076_1_" sodipodi:cx="435.35715" sodipodi:type="arc" sodipodi:cy="60.219322" sodipodi:rx="2.3214285" sodipodi:ry="2.3214285" fill="#B3B3B3" d="
					M-85.3,301.5c0,1.8-1.5,3.3-3.3,3.3s-3.3-1.5-3.3-3.3s1.5-3.3,3.3-3.3S-85.3,299.7-85.3,301.5z"/>
				<g id="g5523_1_" transform="translate(-234.35539,0)">
					
						<path id="path5515_1_" sodipodi:cx="770.87268" sodipodi:type="arc" sodipodi:cy="553.22058" sodipodi:rx="5.9346461" sodipodi:ry="5.9346461" fill="#E6E6E6" stroke="#000000" stroke-linecap="round" d="
						M187.8,666.8c0,3.5-2.9,6.4-6.4,6.4c-3.5,0-6.4-2.9-6.4-6.4c0,0,0,0,0,0c0-3.5,2.9-6.4,6.4-6.4
						C184.9,660.4,187.8,663.3,187.8,666.8C187.8,666.8,187.8,666.8,187.8,666.8z"/>
					
						<path id="path5517_1_" sodipodi:cx="770.87268" sodipodi:type="arc" sodipodi:cy="553.22058" sodipodi:rx="5.9346461" sodipodi:ry="5.9346461" fill="#E6E6E6" stroke="#000000" stroke-linecap="round" d="
						M209.5,678c0,3.5-2.9,6.4-6.4,6.4c-3.5,0-6.4-2.9-6.4-6.4c0,0,0,0,0,0c0-3.5,2.9-6.4,6.4-6.4
						C206.6,671.5,209.5,674.4,209.5,678C209.5,678,209.5,678,209.5,678z"/>
					
						<path id="path5521_1_" sodipodi:cx="770.87268" sodipodi:type="arc" sodipodi:cy="553.22058" sodipodi:rx="5.9346461" sodipodi:ry="5.9346461" fill="#E6E6E6" stroke="#000000" stroke-linecap="round" d="
						M226,692.6c0,3.5-2.9,6.4-6.4,6.4c-3.5,0-6.4-2.9-6.4-6.4c0,0,0,0,0,0c0-3.5,2.9-6.4,6.4-6.4C223.1,686.2,226,689.1,226,692.6
						C226,692.6,226,692.6,226,692.6z"/>
				</g>
				<path id="rect5528_1_" fill="#2E3436" stroke="#000000" stroke-linecap="round" d="M-95.6,678.9H-63c2.6,0,4.8,2.1,4.8,4.8v12.7
					c0,2.6-2.1,4.8-4.8,4.8h-32.7c-2.6,0-4.8-2.1-4.8-4.8v-12.7C-100.4,681-98.3,678.9-95.6,678.9z"/>
				<path id="path13052_1_" sodipodi:nodetypes="ccc" fill="none" stroke="#555555" stroke-width="0.7145" d="M-68.9,245.6l0.2,73.2
					l4.3,372.7"/>
				<path id="path13050_1_" sodipodi:nodetypes="ccc" fill="none" stroke="#555555" stroke-width="0.7139" d="M-84.7,293.3
					l-0.5,25.6l-3.3,373.5"/>
				<path id="path13056_1_" sodipodi:nodetypes="ccc" fill="none" stroke="#555555" stroke-width="0.7141" d="M-76.5,268.9
					l-0.3,49.6L-77,691.8"/>
				<path id="path13058_1_" sodipodi:nodetypes="ccc" fill="none" stroke="#555555" stroke-width="0.7143" d="M-80.4,281.5
					l-0.7,38.3l-1.5,372.1"/>
				<path id="path13074_1_" sodipodi:nodetypes="ccc" fill="none" stroke="#555555" stroke-width="0.7136" d="M-89.1,303.3l0.3,15.5
					l-4.8,373.9"/>
				<path id="path13054_1_" sodipodi:nodetypes="ccc" fill="none" stroke="#555555" stroke-width="0.7139" d="M-72.7,256.6l0.2,42.6
					l1.5,392.9"/>
				<path id="rect5530_1_" fill="#2E3436" stroke="#000000" stroke-width="1.0452" stroke-linecap="round" d="M-92.2,685l24.8-1.1
					c2.8-0.1,5.2,2.1,5.4,4.9l0.1,1.9c0.1,2.8-2.1,5.3-5,5.4l-24.8,1.1c-2.8,0.1-5.2-2.1-5.4-4.9l-0.1-1.9
					C-97.2,687.5-95,685.1-92.2,685z"/>
				<g id="g5546_1_">
					<path id="path5532_1_" sodipodi:nodetypes="ccccc" fill="#2E3436" stroke="#000000" d="M-56.2,629.5
						c-0.6,24.2-1.8,42.8-5.6,63.2c-1.5,1.6-2.2,8.2,0.3,6.6c5.5-11.3,7.2-46.6,8.6-69.8H-56.2z"/>
					<path id="rect5538_1_" fill="#CCCCCC" stroke="#000000" stroke-linecap="round" d="M-53.9,609L-53.9,609c1,0,1.9,0.9,1.8,1.9
						l-0.5,17.4c0,1-0.9,1.9-1.9,1.8l0,0c-1,0-1.9-0.9-1.8-1.9l0.5-17.4C-55.8,609.8-54.9,609-53.9,609z"/>
				</g>
			</g>
		</g>
	</g>
</g>
<g id="Layer_2" display="none">
	<path display="inline" stroke="#000000" stroke-miterlimit="10" d="M-676.1,656c0,0,23.9,14.3,38.2-17.7
		c8.3-35.5,24.7-24.3,24.7-24.3s23.9,8.9,14.8,47.4c-9.2,38.5-24.1,55.6-14.4,90.5s26.2,63.5,22.7,87.9c-3.5,24.5-6,75-82.8,79.2
		s-121.5-3.4-146.6-35.8c-25.1-32.4-16.9-70.6,9.2-129c26.2-58.4,12.2-45.5-0.1-110c-12.3-64.4,9.3-102.4,34.3-76.7
		c7.5,10.7,2.1,44.3,21.3,53s30.6-14.5,30.6-14.5L-676.1,656z"/>
	<path display="inline" fill="#FFFFFF" stroke="#000000" stroke-miterlimit="10" d="M-686.2,662.2c0,0,38,17.8,50,4.2
		c14.7-16.6,23.4-54.2,29.5-38.7c6.2,15.5,3.6,42.8-7.6,62.7c-11.2,19.8-16.9,33,9,99.7s-5,55-6.8,53.5
		c-1.8-1.5-21.4-32.7-64.3-31.8s-54.6,2.6-54.6,2.6s-32,2.6-32-30.8c0,0,1.2-27.1,14.9-49.8c13.7-22.6,8.6-56.2,7-68.9
		c-1.7-12.7-6.1-30,8-24.9C-719.1,645.3-686.2,662.2-686.2,662.2z"/>
	<path display="inline" fill="#4F2400" stroke="#000000" stroke-miterlimit="10" d="M-724.3,667.9l5.9-375.2c0,0-15.5-5.4-7.5-22.1
		c8-16.7,27-98.2,43-107.2c18.5-1.5,32.3,17.5,27.6,22.8c-0.2,10.3-9.1,19.5-17.9,17.9c0,0,13.1,57.5,10.4,64.7
		c0,0-16.2,15.2-19.6,22.9c-3.4,7.7,5.1,376.4,5.1,376.4S-704.7,675.5-724.3,667.9z"/>
	<path display="inline" stroke="#000000" stroke-miterlimit="10" d="M-723.2,267.2l-4.4-1.8l-0.8,0.8c0,0-6.7,1.3-8,0.4
		s-3.5-2.3-1.1-8.3c2.4-6,6.3-3.5,6.3-3.5s4.5,4,5.4,5.8l0.1,1.6l3.8,1.4L-723.2,267.2z"/>
	<path display="inline" stroke="#000000" stroke-miterlimit="10" d="M-717.8,250.3l-4.4-1.8l-0.8,0.8c0,0-6.7,1.3-8,0.4
		c-1.4-0.8-3.5-2.3-1.1-8.3c2.4-6,6.3-3.5,6.3-3.5s4.5,4,5.4,5.8l0.1,1.6l3.8,1.4L-717.8,250.3z"/>
	<path display="inline" stroke="#000000" stroke-miterlimit="10" d="M-711.3,234l-4.4-1.8l-0.8,0.8c0,0-6.7,1.3-8,0.4
		c-1.4-0.8-3.5-2.3-1.1-8.3s6.3-3.5,6.3-3.5s4.5,4,5.4,5.8l0.1,1.6l3.8,1.4L-711.3,234z"/>
	<path display="inline" stroke="#000000" stroke-miterlimit="10" d="M-706.3,217.1l-4.4-1.8l-0.8,0.8c0,0-6.7,1.3-8,0.4
		c-1.4-0.8-3.5-2.3-1.1-8.3c2.4-6,6.3-3.5,6.3-3.5s4.5,4,5.4,5.8l0.1,1.6l3.8,1.4L-706.3,217.1z"/>
	<path display="inline" stroke="#000000" stroke-miterlimit="10" d="M-699.4,199.1l-4.4-1.8l-0.8,0.8c0,0-6.7,1.3-8,0.4
		c-1.4-0.8-3.5-2.3-1.1-8.3c2.4-6,6.3-3.5,6.3-3.5s4.5,4,5.4,5.8l0.1,1.6l3.8,1.4L-699.4,199.1z"/>
	<path display="inline" stroke="#000000" stroke-miterlimit="10" d="M-693.3,183.3l-4.4-1.8l-0.8,0.8c0,0-6.7,1.3-8,0.4
		c-1.4-0.8-3.5-2.3-1.1-8.3c2.4-6,6.3-3.5,6.3-3.5s4.5,4,5.4,5.8l0.1,1.6l3.8,1.4L-693.3,183.3z"/>
	<circle display="inline" fill="none" stroke="#000000" stroke-miterlimit="10" cx="-714.1" cy="268" r="4.6"/>
	<circle display="inline" fill="none" stroke="#000000" stroke-miterlimit="10" cx="-709.6" cy="252.4" r="4.6"/>
	<circle display="inline" fill="none" stroke="#000000" stroke-miterlimit="10" cx="-703.1" cy="234.9" r="4.7"/>
	<circle display="inline" fill="none" stroke="#000000" stroke-miterlimit="10" cx="-697.4" cy="217.1" r="4.8"/>
	<circle display="inline" fill="none" stroke="#000000" stroke-miterlimit="10" cx="-692.1" cy="200.4" r="4.8"/>
	<circle display="inline" fill="none" stroke="#000000" stroke-miterlimit="10" cx="-686.5" cy="184.3" r="4.3"/>
	<path display="inline" fill="none" stroke="#000000" stroke-miterlimit="10" d="M-680.8,695.5h-37.9c-3.7,0-6.8-3.1-6.8-6.8v0
		c0-3.7,3.1-6.8,6.8-6.8h37.9c3.7,0,6.8,3.1,6.8,6.8v0C-673.9,692.4-677,695.5-680.8,695.5z"/>
	<path display="inline" fill="none" stroke="#000000" stroke-miterlimit="10" d="M-681.6,743.3h-37.9c-3.7,0-6.8-3.1-6.8-6.8l0,0
		c0-3.7,3.1-6.8,6.8-6.8h37.9c3.7,0,6.8,3.1,6.8,6.8l0,0C-674.8,740.2-677.8,743.3-681.6,743.3z"/>
	<path display="inline" fill="none" stroke="#000000" stroke-miterlimit="10" d="M-681.4,784.6h-37.9c-3.7,0-6.8-3.1-6.8-6.8l0,0
		c0-3.7,3.1-6.8,6.8-6.8h37.9c3.7,0,6.8,3.1,6.8,6.8l0,0C-674.6,781.6-677.6,784.6-681.4,784.6z"/>
	<path display="inline" fill="#FFFFFF" stroke="#000000" stroke-miterlimit="10" d="M-678,835.6h-46c-3.8,0-7-3.2-7-7V811
		c0-3.9,3.2-7,7-7h46c3.9,0,7,3.1,7,7v17.6C-671,832.5-674.2,835.6-678,835.6z"/>
	<path display="inline" stroke="#000000" stroke-miterlimit="10" d="M-684.8,828.7h-31.7c-4.6,0-8.4-3.8-8.4-8.4v0
		c0-4.6,3.8-8.4,8.4-8.4h31.7c4.6,0,8.4,3.8,8.4,8.4v0C-676.4,824.9-680.2,828.7-684.8,828.7z"/>
	<circle display="inline" fill="none" stroke="#000000" stroke-miterlimit="10" cx="-632.8" cy="802.8" r="9.1"/>
	<circle display="inline" fill="none" stroke="#000000" stroke-miterlimit="10" cx="-609.4" cy="823.6" r="9.1"/>
	<circle display="inline" fill="none" stroke="#000000" stroke-miterlimit="10" cx="-663.5" cy="787" r="8.9"/>
	<line display="inline" fill="none" stroke="#000000" stroke-miterlimit="10" x1="-721.2" y1="813.3" x2="-721.3" y2="813.4"/>
	<line display="inline" fill="none" stroke="#000000" stroke-miterlimit="10" x1="-721.3" y1="813.4" x2="-714.1" y2="272.6"/>
	<line display="inline" fill="none" stroke="#000000" stroke-miterlimit="10" x1="-709.6" y1="257.1" x2="-713.4" y2="811.9"/>
	<line display="inline" fill="none" stroke="#000000" stroke-miterlimit="10" x1="-703.1" y1="239.6" x2="-705.8" y2="812.2"/>
	<line display="inline" fill="none" stroke="#000000" stroke-miterlimit="10" x1="-697.3" y1="222.3" x2="-698.2" y2="811.3"/>
	<line display="inline" fill="none" stroke="#000000" stroke-miterlimit="10" x1="-691.6" y1="204.2" x2="-689.9" y2="812.2"/>
	<line display="inline" fill="none" stroke="#000000" stroke-miterlimit="10" x1="-686.5" y1="189" x2="-682.6" y2="812.2"/>
</g>
</svg>
